<svg version="1.1" id="Layer_1" xmlns="http://www.w3.org/2000/svg" xmlns:xlink="http://www.w3.org/1999/xlink" x="0px" y="0px"
	 width="100%" viewBox="0 0 807 807" enable-background="new 0 0 807 807" xml:space="preserve">
<path fill="#000000" opacity="1.000000" stroke="none" 
	d="
M510.000000,808.000000 
	C340.000061,808.000000 170.500107,808.000000 1.000114,808.000000 
	C1.000076,539.000122 1.000076,270.000275 1.000038,1.000294 
	C269.999786,1.000196 538.999573,1.000196 807.999512,1.000098 
	C807.999695,269.999725 807.999695,538.999451 807.999878,807.999573 
	C708.833313,808.000000 609.666687,808.000000 510.000000,808.000000 
M498.044067,417.949707 
	C498.044067,417.949707 498.036743,418.083893 498.025940,417.547180 
	C498.044373,417.369171 498.062805,417.191193 498.696442,416.670532 
	C504.911438,406.178833 510.879669,395.527893 517.487366,385.289642 
	C519.548462,382.096161 519.152100,379.645966 517.547119,377.180267 
	C511.408508,367.749756 505.096771,358.572815 496.059906,351.364960 
	C485.811981,343.191101 474.368561,338.350098 461.583069,337.123657 
	C445.758301,335.605652 430.485931,338.014435 416.761139,346.729370 
	C410.783234,350.525238 404.575897,354.153625 399.292969,358.792267 
	C394.583191,362.927612 391.003906,368.350494 387.040039,373.069153 
	C384.145111,369.991028 381.630524,367.174408 378.962250,364.511719 
	C374.310028,359.869293 369.563141,355.321716 365.257721,350.220093 
	C377.972107,335.176239 390.616241,320.072266 403.420593,305.105408 
	C416.253754,290.104858 429.184540,275.186646 442.191742,260.336761 
	C450.777039,250.535217 459.516174,240.866516 468.287109,231.229996 
	C482.733154,215.358307 497.298737,199.595383 511.736053,183.715790 
	C517.827759,177.015518 523.721619,170.135361 530.313843,162.645706 
	C527.981201,162.490067 526.108459,161.854080 524.629883,162.362976 
	C520.309814,163.849854 515.998779,165.507736 511.948059,167.607712 
	C494.381195,176.714798 476.530304,185.360199 459.490570,195.377548 
	C434.470978,210.086075 409.843140,225.493393 385.461365,241.242371 
	C370.528229,250.888168 356.140961,261.428101 341.917542,272.111023 
	C324.391327,285.274567 307.102417,298.772217 290.068146,312.566589 
	C277.542328,322.710022 265.485840,333.443970 253.408417,344.127502 
	C237.230042,358.438660 221.099960,372.810455 205.217606,387.447479 
	C197.761063,394.319336 190.931961,401.872040 183.925125,409.007629 
	C166.131378,392.713013 148.747650,376.690399 131.237122,360.807526 
	C123.804970,354.066193 115.930077,347.806641 108.613289,340.947418 
	C105.513275,338.041229 103.046204,338.533295 100.044624,340.433411 
	C94.869438,343.709503 89.613075,346.859955 84.485916,350.208801 
	C71.779564,358.508087 59.110413,366.864685 46.467495,375.260284 
	C44.101990,376.831085 43.198132,378.415253 45.597485,381.266266 
	C51.385521,388.143860 56.654453,395.455444 62.232185,402.513458 
	C71.579277,414.341095 80.946632,426.153687 90.412170,437.886505 
	C99.475723,449.121094 108.751099,460.184967 117.795784,471.434479 
	C129.383804,485.847321 140.745056,500.442841 152.368713,514.826599 
	C164.327911,529.625549 176.493347,544.257690 188.548950,558.978943 
	C190.928070,561.884094 193.172791,562.256165 195.513641,558.944946 
	C198.910843,554.139404 202.341415,549.357117 205.791473,544.589294 
	C224.060074,519.342651 242.360779,494.119171 260.574310,468.832886 
	C262.052460,466.780640 262.958801,464.316528 264.470001,462.023346 
	C264.470001,462.023346 264.809418,462.008179 265.009430,462.529755 
	C265.316528,462.714508 265.623657,462.899292 266.220276,463.711670 
	C268.023438,466.086884 268.699524,468.904083 270.822540,471.403534 
	C283.587708,486.432068 295.075195,502.569946 308.171875,517.284912 
	C317.929230,528.247925 329.018921,538.167603 340.335785,547.563538 
	C353.956268,558.872131 368.397369,569.199341 382.630737,579.752441 
	C384.132324,580.865784 387.116028,581.603577 388.567780,580.862244 
	C393.288605,578.451355 397.796814,575.513855 402.061981,572.342224 
	C413.282745,563.998474 424.570831,555.713257 435.345642,546.815674 
	C440.479462,542.576355 444.507050,536.997375 449.673981,531.930359 
	C450.099548,531.875427 450.525146,531.820496 451.588684,532.077271 
	C458.163940,538.968506 464.440765,546.178162 471.380493,552.680420 
	C483.468903,564.006775 497.870178,571.703064 513.555664,576.678162 
	C535.550903,583.654541 558.148315,584.391968 580.970154,581.994080 
	C599.089539,580.090271 616.297241,575.097656 632.409119,566.717468 
	C639.048462,563.264099 645.075684,558.633728 652.453552,553.842346 
	C631.359985,547.091492 612.379028,539.435303 594.934387,528.339417 
	C603.416809,527.924561 611.775330,528.303589 620.084351,527.824463 
	C629.545715,527.278809 639.073853,526.574890 648.378845,524.876465 
	C677.987610,519.472168 701.210632,504.319122 716.874756,478.278107 
	C718.287170,475.929993 719.226013,473.297089 720.425720,470.708221 
	C700.066406,473.123901 680.571960,475.436981 661.077515,477.750061 
	C673.914856,473.025055 686.736755,469.154999 699.390503,464.796997 
	C710.133240,461.097229 719.642090,454.971649 727.984680,447.376770 
	C738.370544,437.921661 746.330017,426.581665 751.220276,413.299835 
	C754.515076,404.350922 757.872192,395.394501 756.996338,385.540924 
	C756.725159,382.489807 755.919189,381.413300 752.604553,382.678741 
	C741.419861,386.948792 730.138550,390.967896 718.867737,395.009247 
	C711.928223,397.497498 704.940674,399.851501 697.974731,402.265808 
	C708.310425,395.795593 718.944336,390.184998 729.138977,383.865631 
	C742.406311,375.641632 751.936646,363.789795 758.921631,350.009216 
	C767.511536,333.062286 770.143311,314.832275 768.828979,296.046356 
	C768.628113,293.176392 766.375977,290.449982 764.973999,287.445862 
	C761.458740,289.341736 758.990662,290.583984 756.607727,291.972412 
	C741.737122,300.636719 727.175964,309.884430 711.965820,317.902191 
	C682.733215,333.311707 651.696594,344.327271 620.183289,354.104950 
	C597.112671,361.263184 573.664734,367.468506 552.184326,378.999634 
	C532.515015,389.558594 516.442261,403.870880 505.527557,423.846008 
	C503.300140,422.144714 501.104187,420.467438 498.694092,418.388000 
	C498.471405,418.170654 498.210114,418.020538 498.044067,417.949707 
z"/>
<path fill="#007FE0" opacity="1.000000" stroke="none" 
	d="
M498.908234,418.790222 
	C501.104187,420.467438 503.300140,422.144714 505.527557,423.846008 
	C516.442261,403.870880 532.515015,389.558594 552.184326,378.999634 
	C573.664734,367.468506 597.112671,361.263184 620.183289,354.104950 
	C651.696594,344.327271 682.733215,333.311707 711.965820,317.902191 
	C727.175964,309.884430 741.737122,300.636719 756.607727,291.972412 
	C758.990662,290.583984 761.458740,289.341736 764.973999,287.445862 
	C766.375977,290.449982 768.628113,293.176392 768.828979,296.046356 
	C770.143311,314.832275 767.511536,333.062286 758.921631,350.009216 
	C751.936646,363.789795 742.406311,375.641632 729.138977,383.865631 
	C718.944336,390.184998 708.310425,395.795593 697.974731,402.265808 
	C704.940674,399.851501 711.928223,397.497498 718.867737,395.009247 
	C730.138550,390.967896 741.419861,386.948792 752.604553,382.678741 
	C755.919189,381.413300 756.725159,382.489807 756.996338,385.540924 
	C757.872192,395.394501 754.515076,404.350922 751.220276,413.299835 
	C746.330017,426.581665 738.370544,437.921661 727.984680,447.376770 
	C719.642090,454.971649 710.133240,461.097229 699.390503,464.796997 
	C686.736755,469.154999 673.914856,473.025055 661.077515,477.750061 
	C680.571960,475.436981 700.066406,473.123901 720.425720,470.708221 
	C719.226013,473.297089 718.287170,475.929993 716.874756,478.278107 
	C701.210632,504.319122 677.987610,519.472168 648.378845,524.876465 
	C639.073853,526.574890 629.545715,527.278809 620.084351,527.824463 
	C611.775330,528.303589 603.416809,527.924561 594.934387,528.339417 
	C612.379028,539.435303 631.359985,547.091492 652.453552,553.842346 
	C645.075684,558.633728 639.048462,563.264099 632.409119,566.717468 
	C616.297241,575.097656 599.089539,580.090271 580.970154,581.994080 
	C558.148315,584.391968 535.550903,583.654541 513.555664,576.678162 
	C497.870178,571.703064 483.468903,564.006775 471.380493,552.680420 
	C464.440765,546.178162 458.163940,538.968506 451.271210,531.602173 
	C450.325531,530.383057 449.697327,529.638916 449.022766,528.656860 
	C448.976379,528.418945 448.821594,527.959473 448.854736,527.713745 
	C448.755707,527.124878 448.507538,526.927673 448.105347,526.891113 
	C448.067352,526.905945 448.115295,526.839905 447.993317,526.495361 
	C445.939270,523.390625 444.007172,520.630493 442.071838,517.912903 
	C442.068604,517.955444 442.153900,517.956238 442.177063,517.638672 
	C441.158600,515.844788 440.117004,514.368530 439.054565,512.932251 
	C439.033722,512.972290 439.112427,512.928162 439.049530,512.580200 
	C437.680237,510.122803 436.373840,508.013306 435.054718,505.939758 
	C435.041992,505.975739 435.113464,505.949066 435.058777,505.637756 
	C434.691895,504.848114 434.379669,504.369781 434.063782,503.927948 
	C434.060150,503.964478 434.133514,503.966827 434.065674,503.660156 
	C433.704407,502.850769 433.410980,502.348053 433.086273,501.888794 
	C433.055023,501.932251 433.153198,501.889648 433.003754,501.571594 
	C431.291321,498.774994 429.728333,496.296387 428.103699,493.894928 
	C428.042053,493.972046 428.188263,493.839294 428.119385,493.504578 
	C426.406982,491.071167 424.763428,488.972473 423.080933,486.928162 
	C423.041992,486.982574 423.146881,486.899475 423.064880,486.628052 
	C422.710876,486.110840 422.438843,485.865021 422.080444,485.281067 
	C418.606018,481.379883 416.417419,476.779572 410.999329,475.094940 
	C406.790771,473.786346 403.044128,470.992126 398.933990,468.535095 
	C393.253296,464.765839 387.143524,464.695038 380.632629,464.930420 
	C377.475403,463.785461 374.634735,462.820404 371.924866,461.530762 
	C373.074463,460.460144 374.186554,459.812286 375.094543,458.949585 
	C377.814758,456.364838 380.455170,453.696136 383.090820,451.054504 
	C383.054932,451.048828 383.056152,451.121490 383.290222,451.060120 
	C383.842438,450.644836 384.160553,450.290863 384.664703,449.882263 
	C384.850769,449.827606 385.005951,449.472137 385.248871,449.342743 
	C386.468018,448.378387 387.444244,447.543396 388.536987,446.699646 
	C388.653503,446.690887 388.709229,446.463928 388.906738,446.337158 
	C389.527161,445.765045 389.950073,445.319702 390.550385,444.812561 
	C390.727783,444.750793 390.850403,444.395660 391.075439,444.241760 
	C391.922058,443.442841 392.543671,442.797791 393.088440,442.090759 
	C393.011627,442.028748 393.148987,442.170807 393.489197,442.070251 
	C396.601501,435.668213 399.373596,429.366791 402.107208,423.062805 
	C402.068726,423.060303 402.070251,423.137390 402.326843,423.049652 
	C402.788330,422.677704 402.993225,422.393494 403.156738,422.098846 
	C403.115356,422.088409 403.144775,422.168549 403.410889,422.033813 
	C403.792816,421.338593 403.908661,420.778076 404.108948,420.208099 
	C404.193329,420.198608 404.204895,420.029175 404.435852,419.985474 
	C405.005707,419.853790 405.222168,419.640961 405.159302,419.154663 
	C405.002441,419.006104 405.316895,419.305237 405.532043,419.189087 
	C405.965820,418.817841 406.088776,418.522949 406.150330,418.179565 
	C406.184540,418.170929 406.185120,418.100433 406.403687,418.028778 
	C406.899323,417.590393 407.176361,417.223663 407.640991,416.752411 
	C407.828583,416.647919 407.939606,416.233093 408.036926,416.223938 
	C408.134247,416.214752 408.307617,415.886475 408.525513,415.798737 
	C408.743378,415.710999 408.905151,415.269958 409.009277,415.251221 
	C409.113434,415.232513 409.315155,414.880402 409.496155,414.835236 
	C409.677124,414.790070 409.832336,414.450806 410.030029,414.319153 
	C410.520172,413.836945 410.812622,413.486389 411.092102,413.098450 
	C411.079132,413.061096 411.140839,413.110565 411.392212,413.030823 
	C411.843140,412.670746 412.042694,412.390381 412.178070,412.107422 
	C412.113922,412.104858 412.119843,412.233124 412.372070,412.123108 
	C412.791199,411.691528 412.958130,411.369934 413.085083,411.047363 
	C413.045135,411.046387 413.047852,411.126282 413.343079,411.058929 
	C414.103821,410.688507 414.569366,410.385437 415.067505,410.086365 
	C415.100128,410.090302 415.117157,410.026855 415.364349,409.977844 
	C415.839233,409.697540 416.066956,409.466278 416.205780,409.165497 
	C416.116913,409.096008 416.262756,409.268158 416.603577,409.176514 
	C424.458923,404.791595 432.352386,401.889435 441.072266,400.831390 
	C452.427338,399.453552 463.106201,401.759094 473.724915,405.280426 
	C473.739014,405.315704 473.815033,405.316162 474.054016,405.562439 
	C476.208344,406.719299 478.155884,407.568420 480.033173,408.551727 
	C486.048340,411.702423 492.037506,414.902740 498.036743,418.083893 
	C498.036743,418.083893 498.044067,417.949707 497.880249,418.238586 
	C498.113708,418.615021 498.510956,418.702606 498.908234,418.790222 
M425.570221,430.985077 
	C424.151367,432.424103 422.070190,433.625519 421.451080,435.351410 
	C420.147644,438.985260 420.764984,442.396881 424.465210,444.805084 
	C428.195435,447.232849 432.271820,446.102600 434.205627,443.589905 
	C435.847443,441.456543 435.876404,436.874237 434.748444,434.150085 
	C433.575531,431.317413 430.370056,428.826508 425.570221,430.985077 
z"/>
<path fill="#F51123" opacity="1.000000" stroke="none" 
	d="
M264.809418,462.008179 
	C264.809418,462.008179 264.470001,462.023346 263.952759,462.082581 
	C259.643768,466.871765 255.697327,471.486969 252.089310,476.353088 
	C241.208069,491.028595 230.384094,505.747986 219.681717,520.554321 
	C211.598801,531.736755 203.730011,543.074097 195.781631,554.353516 
	C193.815002,557.144226 191.921692,559.075806 188.900360,555.333313 
	C178.464615,542.406616 167.897751,529.585876 157.447632,516.670654 
	C142.505005,498.203217 127.623680,479.686188 112.711708,461.193970 
	C102.075813,448.004486 91.370636,434.870331 80.810204,421.620789 
	C70.475464,408.654419 60.501064,395.393188 49.898510,382.652527 
	C46.742687,378.860291 47.506512,377.161438 51.003071,374.990509 
	C56.088123,371.833344 61.097622,368.554749 66.162033,365.363922 
	C77.678795,358.107849 89.224937,350.898254 100.724380,343.614899 
	C103.941078,341.577576 106.551552,342.227356 109.233650,344.707031 
	C122.519592,356.990356 135.855255,369.220245 149.222336,381.415314 
	C158.916748,390.259735 168.694382,399.012909 178.420898,407.822235 
	C182.415314,411.440002 184.709183,411.481781 188.630112,407.746796 
	C204.159439,392.953857 219.510422,377.969330 235.232346,363.384430 
	C245.701630,353.672241 256.622345,344.441040 267.458313,335.131104 
	C280.548828,323.884064 293.509186,312.462677 306.995056,301.704926 
	C320.740448,290.740143 334.980225,280.387421 349.136475,269.946991 
	C379.654053,247.439957 411.139435,226.365295 444.004700,207.439590 
	C464.462372,195.658875 485.218323,184.390869 505.956726,173.106491 
	C511.242889,170.230118 516.971680,168.167191 522.497070,165.730515 
	C522.774170,166.096909 523.051270,166.463318 523.328369,166.829727 
	C521.832581,168.897842 520.507446,171.119415 518.810364,173.006485 
	C512.706665,179.793671 506.444550,186.438019 500.301971,193.190613 
	C483.890503,211.231995 467.451447,229.248795 451.132935,247.374008 
	C433.163513,267.332947 415.097839,287.212250 397.495178,307.491760 
	C386.406738,320.266357 376.117493,333.733368 365.379608,346.815765 
	C364.508270,347.877319 362.938904,348.365845 361.406555,349.051270 
	C360.407532,348.660980 359.695892,348.340057 358.855469,347.872986 
	C358.541595,347.534424 358.320068,347.404053 357.868347,347.187927 
	C357.674591,347.040100 357.196472,346.945679 356.986176,346.707336 
	C356.181610,346.272400 355.587372,346.075775 355.026825,345.923767 
	C355.060547,345.968414 355.148132,345.898773 354.956787,345.619812 
	C353.524200,344.828400 352.282898,344.315918 351.046234,343.853699 
	C351.050842,343.903961 351.150421,343.887146 350.956177,343.588806 
	C326.998749,332.953766 304.029266,334.425537 281.904968,347.915405 
	C281.941956,347.909515 281.923309,347.836975 281.602844,347.890869 
	C280.478882,348.605957 279.675385,349.267151 278.914429,349.945892 
	C278.956970,349.963440 278.988647,349.877045 278.717224,349.962799 
	C278.271362,350.361664 278.096893,350.674744 277.958862,350.988525 
	C277.995270,350.989166 277.995758,350.916321 277.699066,350.929626 
	C276.936218,351.293457 276.470062,351.644012 275.736328,352.069702 
	C274.955383,352.663483 274.441986,353.182129 273.665100,353.856079 
	C273.138397,354.320465 272.875183,354.629547 272.328491,355.080292 
	C270.017853,357.443420 267.990692,359.664917 265.703094,362.072083 
	C264.850250,363.139740 264.257812,364.021729 263.473694,365.000244 
	C263.069244,365.312683 262.963409,365.572205 262.721680,366.070068 
	C262.288971,366.842682 262.099060,367.420593 261.941345,367.950165 
	C261.973572,367.901825 261.876617,367.837799 261.585266,368.022064 
	C245.799561,394.065430 247.222916,420.430389 258.936462,447.065369 
	C258.938080,447.027771 258.862823,447.029114 258.916840,447.392395 
	C260.274109,450.207001 261.577362,452.658356 262.915466,455.092865 
	C262.950348,455.076050 262.915283,455.007050 262.814270,455.346924 
	C263.122437,456.508789 263.531647,457.330811 263.969604,458.467346 
	C264.357330,459.539551 264.716309,460.297180 265.020874,461.296509 
	C264.966431,461.538208 264.809418,462.008179 264.809418,462.008179 
z"/>
<path fill="#FEC219" opacity="1.000000" stroke="none" 
	d="
M273.928589,353.700775 
	C274.441986,353.182129 274.955383,352.663483 276.022705,352.006470 
	C277.049713,351.550812 277.522736,351.233582 277.995758,350.916321 
	C277.995758,350.916321 277.995270,350.989166 278.173553,350.841980 
	C278.564117,350.422211 278.776367,350.149628 278.988647,349.877045 
	C278.988647,349.877045 278.956970,349.963440 279.273987,349.946381 
	C280.368408,349.231873 281.145874,348.534424 281.923309,347.836975 
	C281.923309,347.836975 281.941956,347.909515 282.292053,347.926147 
	C284.488403,347.266144 286.414795,346.752075 288.168518,345.887634 
	C306.092773,337.052460 324.513794,335.696381 343.509491,341.970581 
	C345.996185,342.791931 348.600555,343.257019 351.150421,343.887146 
	C351.150421,343.887146 351.050842,343.903961 351.194977,344.181152 
	C352.608795,344.938507 353.878448,345.418640 355.148132,345.898773 
	C355.148132,345.898773 355.060547,345.968414 355.239868,346.158997 
	C356.011597,346.548279 356.604034,346.746979 357.196472,346.945679 
	C357.196472,346.945679 357.674591,347.040100 357.899963,347.352600 
	C358.411652,347.783142 358.697968,347.901154 358.984253,348.019165 
	C359.695892,348.340057 360.407532,348.660980 361.585510,349.309357 
	C362.986542,350.002686 363.921234,350.368530 364.855957,350.734375 
	C369.563141,355.321716 374.310028,359.869293 378.962250,364.511719 
	C381.630524,367.174408 384.145111,369.991028 387.040039,373.069153 
	C391.003906,368.350494 394.583191,362.927612 399.292969,358.792267 
	C404.575897,354.153625 410.783234,350.525238 416.761139,346.729370 
	C430.485931,338.014435 445.758301,335.605652 461.583069,337.123657 
	C474.368561,338.350098 485.811981,343.191101 496.059906,351.364960 
	C505.096771,358.572815 511.408508,367.749756 517.547119,377.180267 
	C519.152100,379.645966 519.548462,382.096161 517.487366,385.289642 
	C510.879669,395.527893 504.911438,406.178833 498.074829,416.697052 
	C492.385956,413.693970 487.431641,410.447205 482.202728,407.728516 
	C479.672699,406.413055 476.627167,406.089050 473.815033,405.316162 
	C473.815033,405.316162 473.739014,405.315704 473.632996,404.945190 
	C472.898010,404.074921 472.345093,403.360962 471.628967,403.106842 
	C455.265839,397.300354 438.995239,396.926178 423.018860,404.401398 
	C420.548584,405.557220 418.504150,407.623138 416.262756,409.268188 
	C416.262756,409.268158 416.116913,409.096008 415.969666,409.234222 
	C415.514038,409.511627 415.278961,409.729767 415.117157,410.026855 
	C415.117157,410.026855 415.100128,410.090302 414.774414,410.112091 
	C413.981720,410.464661 413.514771,410.795471 413.047852,411.126282 
	C413.047852,411.126282 413.045135,411.046387 412.864441,411.195190 
	C412.495789,411.640350 412.307831,411.936737 412.119873,412.233124 
	C412.119843,412.233124 412.113922,412.104858 411.945312,412.218079 
	C411.564758,412.591064 411.352814,412.850800 411.140839,413.110565 
	C411.140839,413.110565 411.079132,413.061096 410.822845,413.135315 
	C410.321808,413.623322 410.077087,414.037048 409.832336,414.450806 
	C409.832336,414.450806 409.677124,414.790070 409.359924,414.796570 
	C409.042694,414.803040 408.839050,414.996246 408.839050,414.996246 
	C408.839050,414.996246 408.905151,415.269958 408.905151,415.269958 
	C408.905151,415.269958 408.743378,415.710999 408.399506,415.756439 
	C408.055634,415.801880 407.863495,415.980865 407.863495,415.980865 
	C407.863495,415.980865 407.939606,416.233093 407.939606,416.233093 
	C407.939606,416.233093 407.828583,416.647919 407.378479,416.738892 
	C406.680603,417.253387 406.432861,417.676910 406.185120,418.100433 
	C406.185120,418.100433 406.184540,418.170929 405.950928,418.307892 
	C405.482086,418.684235 405.348633,418.971008 405.316895,419.305237 
	C405.316895,419.305237 405.002441,419.006104 404.931702,419.206482 
	C404.559967,419.527557 404.341248,419.734985 404.204895,420.029175 
	C404.204895,420.029175 404.193329,420.198608 403.891235,420.374329 
	C403.441010,421.089508 403.292877,421.629028 403.144775,422.168549 
	C403.144775,422.168549 403.115356,422.088409 402.920105,422.211426 
	C402.506653,422.602081 402.288452,422.869720 402.070251,423.137390 
	C402.070251,423.137390 402.068726,423.060303 401.785828,423.209381 
	C398.718292,429.629242 395.933655,435.900024 393.148987,442.170807 
	C393.148987,442.170807 393.011627,442.028748 392.756561,442.100616 
	C391.951111,442.913544 391.400757,443.654572 390.850403,444.395630 
	C390.850403,444.395660 390.727783,444.750793 390.262878,444.744629 
	C389.435089,445.313629 389.072174,445.888794 388.709229,446.463928 
	C388.709229,446.463928 388.653503,446.690887 388.193420,446.580200 
	C386.824219,447.470398 385.915100,448.471283 385.005981,449.472168 
	C385.005951,449.472137 384.850769,449.827606 384.392944,449.843048 
	C383.642120,450.279480 383.349121,450.700500 383.056152,451.121490 
	C383.056152,451.121490 383.054932,451.048828 382.730408,451.096985 
	C380.645538,452.070404 378.885193,452.995667 376.014221,454.504700 
	C376.014221,448.986481 376.430145,444.578247 375.875946,440.295563 
	C375.469757,437.156555 373.790436,434.182251 372.738403,431.132751 
	C372.798279,431.130981 372.784851,431.250031 372.836365,430.876770 
	C372.169434,429.367279 371.450928,428.231049 370.468109,426.896057 
	C368.636505,424.440155 367.382294,421.850861 365.425568,420.006989 
	C362.761719,417.496735 361.098358,413.115448 355.937042,414.208679 
	C355.507690,414.685791 355.307129,415.000427 355.116333,415.183380 
	C355.126099,415.051666 355.388702,415.079834 355.089783,415.285278 
	C354.570282,416.389679 354.349640,417.288666 354.117279,418.115479 
	C354.105530,418.043335 354.250824,418.027618 353.936096,418.245880 
	C352.743317,422.118103 351.000427,425.815002 351.179230,429.416504 
	C351.488342,435.644318 352.989716,441.812958 353.995483,448.003235 
	C354.000000,448.000000 354.006165,447.991028 353.642883,448.175140 
	C353.052551,448.508118 352.825500,448.656982 352.469849,448.785706 
	C352.341217,448.765564 352.254425,448.520081 352.315521,448.175842 
	C350.804077,445.942627 349.231537,444.053680 347.717712,442.160522 
	C347.776398,442.156311 347.765503,442.273499 347.819397,441.885651 
	C346.410736,437.683167 345.112305,433.793396 343.416107,430.085693 
	C342.573090,428.242920 340.999939,426.734131 339.820435,425.074707 
	C339.883789,425.075104 339.873108,425.201355 339.865997,424.858002 
	C339.172882,423.691711 338.486847,422.868805 337.859619,422.050720 
	C337.918427,422.055511 337.901855,422.172333 337.884766,421.824646 
	C337.072113,420.903076 336.276581,420.329224 335.383606,419.733643 
	C335.286163,419.711853 335.253906,419.514771 335.261108,419.292053 
	C335.104401,418.751434 334.852570,418.649170 334.404846,418.742493 
	C334.296875,418.722412 334.247314,418.508453 334.256165,418.290161 
	C334.100342,417.758667 333.851898,417.663879 333.411316,417.777893 
	C333.303009,417.768341 333.240265,417.560120 333.240601,417.260193 
	C332.755798,416.684326 332.270721,416.408325 331.832336,416.130127 
	C331.879089,416.127930 331.870941,416.221130 331.840881,415.879822 
	C330.334534,414.740692 328.858246,413.942841 327.175903,412.806488 
	C325.772858,411.997131 324.583771,411.504944 323.377594,411.058960 
	C317.069092,408.726593 310.757263,406.396271 303.688538,409.301819 
	C302.652588,416.876526 303.706238,423.568298 309.211517,428.896912 
	C309.150299,428.896057 309.165009,428.774506 309.134735,429.142212 
	C309.811127,430.298615 310.517792,431.087250 311.175873,431.880707 
	C311.127289,431.885498 311.129791,431.787903 311.161499,432.090698 
	C311.649048,432.673737 312.104919,432.953949 312.657776,433.261780 
	C312.754730,433.289398 312.774048,433.490143 312.758972,433.707886 
	C312.743927,433.925659 313.044647,434.237488 313.044647,434.237488 
	C313.044647,434.237488 313.478027,434.223297 313.593994,434.248871 
	C313.709930,434.274445 313.772247,434.503662 313.713623,434.821472 
	C314.273621,435.519775 314.892242,435.900238 315.590942,436.297852 
	C315.671021,436.315002 315.705383,436.475159 315.660950,436.813904 
	C316.458374,437.742096 317.300201,438.331512 318.093170,438.946564 
	C318.044312,438.972198 317.995605,438.873199 318.183777,439.084656 
	C318.714142,439.450378 319.056396,439.604614 319.295532,439.755676 
	C319.192413,439.752563 319.220520,439.548157 319.343018,439.842285 
	C320.010925,440.410309 320.556396,440.684235 321.060181,440.965088 
	C321.018555,440.972046 321.007019,440.888367 321.145142,441.102539 
	C321.734772,441.514618 322.186279,441.712494 322.840210,442.232727 
	C327.373016,444.415192 331.703430,446.275360 336.328430,448.352264 
	C337.839478,448.627319 339.055908,448.685608 340.205383,448.751373 
	C340.138458,448.758850 340.142914,448.624237 340.314880,448.910950 
	C341.101807,449.359009 341.716797,449.520355 342.260559,449.696472 
	C342.189362,449.711212 342.184326,449.565826 342.323914,449.794189 
	C342.795532,450.098785 343.127594,450.175049 343.568359,450.250122 
	C343.677063,450.248962 343.750214,450.453735 343.730713,450.771149 
	C344.811096,452.394806 345.911011,453.701019 346.583557,454.999756 
	C344.867462,454.759125 343.581268,454.342194 342.289490,454.323975 
	C336.060638,454.236053 329.483429,452.211548 324.133881,457.302612 
	C324.135010,457.231384 324.275879,457.252441 323.887817,457.197083 
	C321.003479,458.464081 318.507263,459.786438 316.013489,461.070862 
	C316.015961,461.032959 316.091583,461.040375 315.735504,461.072296 
	C313.661316,462.543060 311.943176,463.981903 310.198761,465.319336 
	C310.172455,465.217896 310.379242,465.183716 310.107971,465.285461 
	C309.562225,465.652557 309.287781,465.917908 309.016479,466.102295 
	C309.019623,466.021301 309.181458,466.029663 308.947266,466.165253 
	C308.475006,466.568420 308.236938,466.835999 308.010834,467.062561 
	C308.022766,467.021545 308.104187,467.047485 307.773376,467.078674 
	C306.797424,467.717010 306.152313,468.324188 305.507233,468.931366 
	C306.180359,469.386169 306.853516,469.841003 307.598877,470.312805 
	C307.671082,470.329773 307.705109,470.474152 307.654053,470.819122 
	C308.766174,472.094940 309.929291,473.025787 311.058228,473.962830 
	C311.024048,473.969055 311.036530,473.900726 311.112610,474.242035 
	C312.169556,475.031250 313.150391,475.479156 314.094818,475.931946 
	C314.058411,475.936768 314.060516,475.863342 314.112976,476.210114 
	C320.852722,482.854065 329.157135,485.237518 337.917999,484.695251 
	C343.384155,484.356934 349.599060,484.002075 353.312500,478.338196 
	C353.368225,478.262512 353.548309,478.316254 353.819611,478.332245 
	C354.359070,478.118591 354.627228,477.888947 354.885864,477.738586 
	C354.876312,477.817871 354.720398,477.783203 355.089691,477.801758 
	C356.602936,476.812714 357.746887,475.805145 358.892975,474.840271 
	C358.895142,474.882935 358.809937,474.876007 359.023163,474.887634 
	C359.459839,474.576294 359.683258,474.253357 360.053711,473.634705 
	C361.837891,471.553894 363.475067,469.768768 365.451538,467.961945 
	C366.816772,468.372833 367.842712,468.805450 368.989166,469.534668 
	C370.411835,470.922821 371.713959,472.014374 373.153809,473.371033 
	C374.134705,474.160858 374.977844,474.685608 375.898254,475.451935 
	C376.263123,475.853638 376.550720,476.013824 376.893707,476.510315 
	C379.990265,479.665527 383.031403,482.484436 386.149597,485.550354 
	C386.649963,485.972382 387.073334,486.147400 387.560486,486.338257 
	C387.624298,486.354095 387.656891,486.481476 387.612671,486.827393 
	C388.881622,488.191498 390.194855,489.209686 391.608154,490.245605 
	C391.708221,490.263336 391.749542,490.462433 391.700317,490.833618 
	C393.684631,492.073151 396.026031,494.007935 397.671661,493.532776 
	C399.613342,492.972198 402.437408,490.087524 402.204254,488.641663 
	C401.858551,486.497742 399.161316,484.733002 397.352051,482.769287 
	C397.239044,482.731750 397.205780,482.495911 397.274475,482.156616 
	C395.057556,479.469604 392.771973,477.121887 390.378235,474.748169 
	C390.270050,474.722198 390.222839,474.504791 390.283081,474.184570 
	C389.724152,473.475739 389.104950,473.087097 388.417694,472.680115 
	C388.349670,472.661835 388.319855,472.524139 388.380432,472.167480 
	C387.529327,470.942993 386.617645,470.075165 385.778259,469.171997 
	C385.850555,469.136658 385.741608,469.255127 385.914001,468.890076 
	C388.029694,468.088623 389.991943,467.234344 391.911469,467.321320 
	C394.323303,467.430695 396.700195,468.310730 399.092163,468.858215 
	C403.044128,470.992126 406.790771,473.786346 410.999329,475.094940 
	C416.417419,476.779572 418.606018,481.379883 422.177643,485.539612 
	C422.623138,486.390747 422.885010,486.645111 423.146881,486.899475 
	C423.146881,486.899475 423.041992,486.982574 423.065674,487.299530 
	C424.789001,489.690765 426.488617,491.765045 428.188263,493.839294 
	C428.188263,493.839294 428.042053,493.972046 428.111053,494.262756 
	C429.837769,496.998901 431.495483,499.444275 433.153198,501.889648 
	C433.153198,501.889648 433.055023,501.932251 433.100922,502.198181 
	C433.475708,502.965027 433.804596,503.465942 434.133514,503.966827 
	C434.133514,503.966827 434.060150,503.964478 434.090851,504.230377 
	C434.452179,504.980560 434.782806,505.464813 435.113464,505.949066 
	C435.113464,505.949066 435.041992,505.975739 435.048767,506.309814 
	C436.407806,508.738647 437.760101,510.833405 439.112427,512.928162 
	C439.112427,512.928162 439.033722,512.972290 439.046692,513.292114 
	C440.091095,515.059998 441.122498,516.508118 442.153931,517.956238 
	C442.153900,517.956238 442.068604,517.955444 442.068604,518.286804 
	C444.084198,521.358765 446.099762,524.099304 448.115295,526.839905 
	C448.115295,526.839905 448.067352,526.905945 448.167938,527.100098 
	C448.387146,527.570618 448.571503,527.792358 448.821594,527.959473 
	C448.821594,527.959473 448.976379,528.418945 448.999451,529.047363 
	C449.026947,530.458984 449.031342,531.242126 449.035706,532.025269 
	C444.507050,536.997375 440.479462,542.576355 435.345642,546.815674 
	C424.570831,555.713257 413.282745,563.998474 402.061981,572.342224 
	C397.796814,575.513855 393.288605,578.451355 388.567780,580.862244 
	C387.116028,581.603577 384.132324,580.865784 382.630737,579.752441 
	C368.397369,569.199341 353.956268,558.872131 340.335785,547.563538 
	C329.018921,538.167603 317.929230,528.247925 308.171875,517.284912 
	C295.075195,502.569946 283.587708,486.432068 270.822540,471.403534 
	C268.699524,468.904083 268.023438,466.086884 266.062134,463.110992 
	C265.627777,462.025146 265.351562,461.540009 265.075317,461.054840 
	C264.716309,460.297180 264.357330,459.539551 263.965759,458.120667 
	C263.593872,456.641968 263.254578,455.824524 262.915283,455.007050 
	C262.915283,455.007050 262.950348,455.076050 262.930786,454.716766 
	C261.561737,451.914703 260.212280,449.471924 258.862823,447.029114 
	C258.862823,447.029114 258.938080,447.027771 258.949280,446.656006 
	C258.102356,443.089905 257.325806,439.871063 256.373047,436.705231 
	C249.831345,414.968323 249.019974,393.623260 260.411926,373.007629 
	C261.255646,371.480804 261.404633,369.570068 261.876617,367.837799 
	C261.876617,367.837799 261.973572,367.901825 262.169128,367.746338 
	C262.564636,367.019012 262.764557,366.447174 262.964508,365.875336 
	C262.963409,365.572205 263.069244,365.312683 263.834106,364.952789 
	C264.912018,363.834686 265.437775,362.860565 265.963501,361.886414 
	C267.990692,359.664917 270.017853,357.443420 272.594727,354.926514 
	C273.405823,354.320984 273.667206,354.010895 273.928589,353.700775 
z"/>
<path fill="#F70D12" opacity="1.000000" stroke="none" 
	d="
M365.056824,350.477234 
	C363.921234,350.368530 362.986542,350.002686 361.872864,349.378723 
	C362.938904,348.365845 364.508270,347.877319 365.379608,346.815765 
	C376.117493,333.733368 386.406738,320.266357 397.495178,307.491760 
	C415.097839,287.212250 433.163513,267.332947 451.132935,247.374008 
	C467.451447,229.248795 483.890503,211.231995 500.301971,193.190613 
	C506.444550,186.438019 512.706665,179.793671 518.810364,173.006485 
	C520.507446,171.119415 521.832581,168.897842 523.328369,166.829727 
	C523.051270,166.463318 522.774170,166.096909 522.497070,165.730515 
	C516.971680,168.167191 511.242889,170.230118 505.956726,173.106491 
	C485.218323,184.390869 464.462372,195.658875 444.004700,207.439590 
	C411.139435,226.365295 379.654053,247.439957 349.136475,269.946991 
	C334.980225,280.387421 320.740448,290.740143 306.995056,301.704926 
	C293.509186,312.462677 280.548828,323.884064 267.458313,335.131104 
	C256.622345,344.441040 245.701630,353.672241 235.232346,363.384430 
	C219.510422,377.969330 204.159439,392.953857 188.630112,407.746796 
	C184.709183,411.481781 182.415314,411.440002 178.420898,407.822235 
	C168.694382,399.012909 158.916748,390.259735 149.222336,381.415314 
	C135.855255,369.220245 122.519592,356.990356 109.233650,344.707031 
	C106.551552,342.227356 103.941078,341.577576 100.724380,343.614899 
	C89.224937,350.898254 77.678795,358.107849 66.162033,365.363922 
	C61.097622,368.554749 56.088123,371.833344 51.003071,374.990509 
	C47.506512,377.161438 46.742687,378.860291 49.898510,382.652527 
	C60.501064,395.393188 70.475464,408.654419 80.810204,421.620789 
	C91.370636,434.870331 102.075813,448.004486 112.711708,461.193970 
	C127.623680,479.686188 142.505005,498.203217 157.447632,516.670654 
	C167.897751,529.585876 178.464615,542.406616 188.900360,555.333313 
	C191.921692,559.075806 193.815002,557.144226 195.781631,554.353516 
	C203.730011,543.074097 211.598801,531.736755 219.681717,520.554321 
	C230.384094,505.747986 241.208069,491.028595 252.089310,476.353088 
	C255.697327,471.486969 259.643768,466.871765 263.783142,462.092834 
	C262.958801,464.316528 262.052460,466.780640 260.574310,468.832886 
	C242.360779,494.119171 224.060074,519.342651 205.791473,544.589294 
	C202.341415,549.357117 198.910843,554.139404 195.513641,558.944946 
	C193.172791,562.256165 190.928070,561.884094 188.548950,558.978943 
	C176.493347,544.257690 164.327911,529.625549 152.368713,514.826599 
	C140.745056,500.442841 129.383804,485.847321 117.795784,471.434479 
	C108.751099,460.184967 99.475723,449.121094 90.412170,437.886505 
	C80.946632,426.153687 71.579277,414.341095 62.232185,402.513458 
	C56.654453,395.455444 51.385521,388.143860 45.597485,381.266266 
	C43.198132,378.415253 44.101990,376.831085 46.467495,375.260284 
	C59.110413,366.864685 71.779564,358.508087 84.485916,350.208801 
	C89.613075,346.859955 94.869438,343.709503 100.044624,340.433411 
	C103.046204,338.533295 105.513275,338.041229 108.613289,340.947418 
	C115.930077,347.806641 123.804970,354.066193 131.237122,360.807526 
	C148.747650,376.690399 166.131378,392.713013 183.925125,409.007629 
	C190.931961,401.872040 197.761063,394.319336 205.217606,387.447479 
	C221.099960,372.810455 237.230042,358.438660 253.408417,344.127502 
	C265.485840,333.443970 277.542328,322.710022 290.068146,312.566589 
	C307.102417,298.772217 324.391327,285.274567 341.917542,272.111023 
	C356.140961,261.428101 370.528229,250.888168 385.461365,241.242371 
	C409.843140,225.493393 434.470978,210.086075 459.490570,195.377548 
	C476.530304,185.360199 494.381195,176.714798 511.948059,167.607712 
	C515.998779,165.507736 520.309814,163.849854 524.629883,162.362976 
	C526.108459,161.854080 527.981201,162.490067 530.313843,162.645706 
	C523.721619,170.135361 517.827759,177.015518 511.736053,183.715790 
	C497.298737,199.595383 482.733154,215.358307 468.287109,231.229996 
	C459.516174,240.866516 450.777039,250.535217 442.191742,260.336761 
	C429.184540,275.186646 416.253754,290.104858 403.420593,305.105408 
	C390.616241,320.072266 377.972107,335.176239 365.056824,350.477234 
z"/>
<path fill="#F5E11C" opacity="1.000000" stroke="none" 
	d="
M474.054016,405.562439 
	C476.627167,406.089050 479.672699,406.413055 482.202728,407.728516 
	C487.431641,410.447205 492.385956,413.693970 497.767242,416.868378 
	C498.062805,417.191193 498.044373,417.369171 498.031342,417.815552 
	C492.037506,414.902740 486.048340,411.702423 480.033173,408.551727 
	C478.155884,407.568420 476.208344,406.719299 474.054016,405.562439 
z"/>
<path fill="#F5E11C" opacity="1.000000" stroke="none" 
	d="
M449.354858,531.977783 
	C449.031342,531.242126 449.026947,530.458984 449.045837,529.285339 
	C449.697327,529.638916 450.325531,530.383057 450.952209,531.446350 
	C450.525146,531.820496 450.099548,531.875427 449.354858,531.977783 
z"/>
<path fill="#F5E11C" opacity="1.000000" stroke="none" 
	d="
M265.020874,461.296509 
	C265.351562,461.540009 265.627777,462.025146 265.917389,462.797180 
	C265.623657,462.899292 265.316528,462.714508 264.909424,462.268982 
	C264.809418,462.008179 264.966431,461.538208 265.020874,461.296509 
z"/>
<path fill="#F5E11C" opacity="1.000000" stroke="none" 
	d="
M498.801147,418.589111 
	C498.510956,418.702606 498.113708,418.615021 497.813324,418.232544 
	C498.210114,418.020538 498.471405,418.170654 498.801147,418.589111 
z"/>
<path fill="#1C1D20" opacity="1.000000" stroke="none" 
	d="
M336.033813,448.135529 
	C331.703430,446.275360 327.373016,444.415192 322.769104,441.981384 
	C321.999390,441.234619 321.503204,441.061493 321.007019,440.888367 
	C321.007019,440.888367 321.018555,440.972046 320.918335,440.695770 
	C320.285583,440.129059 319.753052,439.838623 319.220520,439.548157 
	C319.220520,439.548157 319.192413,439.752563 319.134644,439.511475 
	C318.716431,439.137970 318.356018,439.005585 317.995605,438.873199 
	C317.995605,438.873199 318.044312,438.972198 317.977905,438.675995 
	C317.176147,437.744904 316.440765,437.110016 315.705383,436.475159 
	C315.705383,436.475159 315.671021,436.315002 315.428986,436.107819 
	C314.715363,435.434998 314.243805,434.969330 313.772247,434.503662 
	C313.772247,434.503662 313.709930,434.274445 313.491211,434.113495 
	C313.126190,433.777039 312.960022,433.622925 312.774048,433.490143 
	C312.774048,433.490143 312.754730,433.289398 312.496338,433.056030 
	C311.868561,432.477722 311.499176,432.132812 311.129791,431.787903 
	C311.129791,431.787903 311.127289,431.885498 311.084198,431.575562 
	C310.415741,430.435272 309.790375,429.604889 309.165009,428.774506 
	C309.165009,428.774506 309.150299,428.896057 309.112366,428.535522 
	C307.357056,421.776367 305.639648,415.377777 303.922241,408.979156 
	C310.757263,406.396271 317.069092,408.726593 323.377594,411.058960 
	C324.583771,411.504944 325.772858,411.997131 327.305664,413.071075 
	C329.051331,414.523163 330.461121,415.372131 331.870941,416.221130 
	C331.870941,416.221130 331.879089,416.127930 331.941254,416.367126 
	C332.415680,416.924255 332.827972,417.242188 333.240265,417.560120 
	C333.240265,417.560120 333.303009,417.768341 333.518311,417.913422 
	C333.886932,418.228943 334.058167,418.378937 334.247314,418.508453 
	C334.247314,418.508453 334.296875,418.722412 334.514648,418.881287 
	C334.887695,419.218750 335.061523,419.376953 335.253906,419.514771 
	C335.253906,419.514771 335.286163,419.711853 335.567261,419.954987 
	C336.532867,420.856201 337.217346,421.514282 337.901855,422.172333 
	C337.901855,422.172333 337.918427,422.055511 337.958435,422.359314 
	C338.623322,423.509216 339.248230,424.355286 339.873108,425.201355 
	C339.873108,425.201355 339.883789,425.075104 339.912262,425.437561 
	C342.549011,431.291168 345.157257,436.782349 347.765503,442.273499 
	C347.765503,442.273499 347.776398,442.156311 347.823944,442.489594 
	C349.332489,444.721924 350.793457,446.621002 352.254425,448.520081 
	C352.254425,448.520081 352.341217,448.765564 352.664368,449.023376 
	C354.804657,450.863190 356.621765,452.445190 358.438873,454.027222 
	C352.232605,442.460724 351.453613,430.464996 354.250824,418.027618 
	C354.250824,418.027618 354.105530,418.043335 354.416595,417.927368 
	C354.947998,416.900909 355.168335,415.990356 355.388702,415.079834 
	C355.388702,415.079834 355.126099,415.051666 355.383911,415.061890 
	C355.816406,414.730133 355.991119,414.388153 356.165833,414.046173 
	C361.098358,413.115448 362.761719,417.496735 365.425568,420.006989 
	C367.382294,421.850861 368.636505,424.440155 370.553772,427.222290 
	C371.530762,428.914886 372.157806,430.082458 372.784851,431.250031 
	C372.784851,431.250031 372.798279,431.130981 372.833801,431.523132 
	C376.065369,441.430939 376.006622,450.731049 371.169556,459.776733 
	C370.927734,460.228973 371.565704,461.151672 371.794037,461.855316 
	C374.634735,462.820404 377.475403,463.785461 380.785797,465.212097 
	C382.750854,466.867523 384.246216,468.061340 385.741608,469.255127 
	C385.741608,469.255127 385.850555,469.136658 385.881836,469.462799 
	C386.715393,470.700684 387.517609,471.612396 388.319855,472.524139 
	C388.319855,472.524139 388.349670,472.661835 388.576843,472.873901 
	C389.276947,473.558899 389.749908,474.031860 390.222839,474.504791 
	C390.222839,474.504791 390.270050,474.722198 390.585785,474.997681 
	C393.002930,477.680756 395.104370,480.088318 397.205780,482.495911 
	C397.205780,482.495911 397.239044,482.731750 397.515930,482.976715 
	C398.220490,483.958893 398.648132,484.696136 399.081238,485.864441 
	C399.240173,490.771637 396.099487,491.007843 392.651428,491.078674 
	C392.195221,490.854492 391.966766,490.665222 391.749542,490.462433 
	C391.749542,490.462433 391.708221,490.263336 391.416229,490.015320 
	C389.968445,488.672058 388.812683,487.576752 387.656891,486.481476 
	C387.656891,486.481476 387.624298,486.354095 387.419342,486.184692 
	C386.952515,485.851562 386.822021,485.615204 386.780640,484.964539 
	C383.438385,481.806549 380.138336,478.990295 376.838318,476.174011 
	C376.550720,476.013824 376.263123,475.853638 375.855957,475.121155 
	C374.829651,474.067871 373.922882,473.586914 373.016083,473.105957 
	C371.713959,472.014374 370.411835,470.922821 368.947205,469.213928 
	C367.782990,467.059418 366.868805,464.998016 365.112244,467.983643 
	C363.475067,469.768768 361.837891,471.553894 359.809418,473.712097 
	C359.215393,474.348755 359.012665,474.612366 358.809937,474.876007 
	C358.809937,474.876007 358.895142,474.882935 358.565308,474.903778 
	C357.063782,475.877472 355.892090,476.830353 354.720398,477.783203 
	C354.720398,477.783203 354.876312,477.817871 354.637787,477.798706 
	C354.115601,477.958466 353.831970,478.137360 353.548309,478.316254 
	C353.548309,478.316254 353.368225,478.262512 353.022217,478.528809 
	C347.340729,480.206879 342.079712,482.166412 336.652588,482.903748 
	C328.212189,484.050507 321.102325,479.812714 314.060516,475.863342 
	C314.060516,475.863342 314.058411,475.936768 313.940857,475.652313 
	C312.894348,474.878815 311.965454,474.389771 311.036530,473.900726 
	C311.036530,473.900726 311.024048,473.969055 310.940186,473.674072 
	C309.805939,472.410767 308.755524,471.442474 307.705109,470.474152 
	C307.705109,470.474152 307.671082,470.329773 307.388702,470.069092 
	C307.438965,468.888092 307.771576,467.967773 308.104187,467.047485 
	C308.104187,467.047485 308.022766,467.021545 308.284027,466.977814 
	C308.757324,466.632599 308.969391,466.331116 309.181458,466.029663 
	C309.181458,466.029663 309.019623,466.021301 309.306061,466.024292 
	C309.854736,465.746094 310.116974,465.464905 310.379211,465.183716 
	C310.379242,465.183716 310.172455,465.217896 310.516357,465.188416 
	C312.604004,463.786072 314.347809,462.413239 316.091583,461.040375 
	C316.091583,461.040375 316.015961,461.032959 316.370972,461.001770 
	C319.242645,459.731201 321.759277,458.491852 324.275879,457.252441 
	C324.275879,457.252441 324.135010,457.231384 324.532532,457.200928 
	C336.108643,453.474213 346.587799,456.142853 357.083557,460.419495 
	C354.575867,458.366241 352.068146,456.312988 349.315063,454.053864 
	C347.296539,452.716583 345.523376,451.585144 343.750214,450.453735 
	C343.750214,450.453735 343.677063,450.248962 343.378296,450.092682 
	C342.811493,449.739563 342.513062,449.616058 342.184326,449.565826 
	C342.184326,449.565826 342.189362,449.711212 342.053589,449.462158 
	C341.326172,449.016785 340.734558,448.820496 340.142914,448.624237 
	C340.142914,448.624237 340.138458,448.758850 339.934326,448.493652 
	C338.498077,448.197449 337.265961,448.166473 336.033813,448.135529 
z"/>
<path fill="#000000" opacity="1.000000" stroke="none" 
	d="
M425.961639,430.947998 
	C430.370056,428.826508 433.575531,431.317413 434.748444,434.150085 
	C435.876404,436.874237 435.847443,441.456543 434.205627,443.589905 
	C432.271820,446.102600 428.195435,447.232849 424.465210,444.805084 
	C420.764984,442.396881 420.147644,438.985260 421.451080,435.351410 
	C422.070190,433.625519 424.151367,432.424103 425.961639,430.947998 
z"/>
<path fill="#F5E11C" opacity="1.000000" stroke="none" 
	d="
M416.603577,409.176514 
	C418.504150,407.623138 420.548584,405.557220 423.018860,404.401398 
	C438.995239,396.926178 455.265839,397.300354 471.628967,403.106842 
	C472.345093,403.360962 472.898010,404.074921 473.618896,404.909912 
	C463.106201,401.759094 452.427338,399.453552 441.072266,400.831390 
	C432.352386,401.889435 424.458923,404.791595 416.603577,409.176514 
z"/>
<path fill="#F5E11C" opacity="1.000000" stroke="none" 
	d="
M371.924866,461.530762 
	C371.565704,461.151672 370.927734,460.228973 371.169556,459.776733 
	C376.006622,450.731049 376.065369,441.430939 372.773926,431.524933 
	C373.790436,434.182251 375.469757,437.156555 375.875946,440.295563 
	C376.430145,444.578247 376.014221,448.986481 376.014221,454.504700 
	C378.885193,452.995667 380.645538,452.070404 382.766296,451.102661 
	C380.455170,453.696136 377.814758,456.364838 375.094543,458.949585 
	C374.186554,459.812286 373.074463,460.460144 371.924866,461.530762 
z"/>
<path fill="#F5E11C" opacity="1.000000" stroke="none" 
	d="
M393.489197,442.070251 
	C395.933655,435.900024 398.718292,429.629242 401.824310,423.211914 
	C399.373596,429.366791 396.601501,435.668213 393.489197,442.070251 
z"/>
<path fill="#F5E11C" opacity="1.000000" stroke="none" 
	d="
M385.914001,468.890076 
	C384.246216,468.061340 382.750854,466.867523 381.102325,465.392029 
	C387.143524,464.695038 393.253296,464.765839 398.933990,468.535095 
	C396.700195,468.310730 394.323303,467.430695 391.911469,467.321320 
	C389.991943,467.234344 388.029694,468.088623 385.914001,468.890076 
z"/>
<path fill="#F5E11C" opacity="1.000000" stroke="none" 
	d="
M447.993317,526.495361 
	C446.099762,524.099304 444.084198,521.358765 442.071838,518.244263 
	C444.007172,520.630493 445.939270,523.390625 447.993317,526.495361 
z"/>
<path fill="#F5E11C" opacity="1.000000" stroke="none" 
	d="
M428.119385,493.504578 
	C426.488617,491.765045 424.789001,489.690765 423.104614,487.245117 
	C424.763428,488.972473 426.406982,491.071167 428.119385,493.504578 
z"/>
<path fill="#F5E11C" opacity="1.000000" stroke="none" 
	d="
M433.003754,501.571594 
	C431.495483,499.444275 429.837769,496.998901 428.172699,494.185669 
	C429.728333,496.296387 431.291321,498.774994 433.003754,501.571594 
z"/>
<path fill="#F5E11C" opacity="1.000000" stroke="none" 
	d="
M439.049530,512.580200 
	C437.760101,510.833405 436.407806,508.738647 435.061462,506.273865 
	C436.373840,508.013306 437.680237,510.122803 439.049530,512.580200 
z"/>
<path fill="#F5E11C" opacity="1.000000" stroke="none" 
	d="
M442.177063,517.638672 
	C441.122498,516.508118 440.091095,515.059998 439.067566,513.252075 
	C440.117004,514.368530 441.158600,515.844788 442.177063,517.638672 
z"/>
<path fill="#F5E11C" opacity="1.000000" stroke="none" 
	d="
M385.248901,449.342773 
	C385.915100,448.471283 386.824219,447.470398 388.076904,446.588959 
	C387.444244,447.543396 386.468018,448.378387 385.248901,449.342773 
z"/>
<path fill="#F5E11C" opacity="1.000000" stroke="none" 
	d="
M391.075409,444.241760 
	C391.400757,443.654572 391.951111,442.913544 392.833374,442.162598 
	C392.543671,442.797791 391.922058,443.442841 391.075409,444.241760 
z"/>
<path fill="#F5E11C" opacity="1.000000" stroke="none" 
	d="
M388.906738,446.337158 
	C389.072174,445.888794 389.435089,445.313629 390.085510,444.806396 
	C389.950073,445.319702 389.527161,445.765045 388.906738,446.337158 
z"/>
<path fill="#F5E11C" opacity="1.000000" stroke="none" 
	d="
M435.058777,505.637756 
	C434.782806,505.464813 434.452179,504.980560 434.094482,504.193848 
	C434.379669,504.369781 434.691895,504.848114 435.058777,505.637756 
z"/>
<path fill="#F5E11C" opacity="1.000000" stroke="none" 
	d="
M434.065674,503.660156 
	C433.804596,503.465942 433.475708,502.965027 433.132172,502.154724 
	C433.410980,502.348053 433.704407,502.850769 434.065674,503.660156 
z"/>
<path fill="#F5E11C" opacity="1.000000" stroke="none" 
	d="
M413.343079,411.058929 
	C413.514771,410.795471 413.981720,410.464661 414.741791,410.108154 
	C414.569366,410.385437 414.103821,410.688507 413.343079,411.058929 
z"/>
<path fill="#F5E11C" opacity="1.000000" stroke="none" 
	d="
M410.030029,414.319153 
	C410.077087,414.037048 410.321808,413.623322 410.835815,413.172668 
	C410.812622,413.486389 410.520172,413.836945 410.030029,414.319153 
z"/>
<path fill="#F5E11C" opacity="1.000000" stroke="none" 
	d="
M406.403687,418.028778 
	C406.432861,417.676910 406.680603,417.253387 407.190857,416.843384 
	C407.176361,417.223663 406.899323,417.590393 406.403687,418.028778 
z"/>
<path fill="#F5E11C" opacity="1.000000" stroke="none" 
	d="
M403.410858,422.033813 
	C403.292877,421.629028 403.441010,421.089508 403.806824,420.383789 
	C403.908661,420.778076 403.792816,421.338593 403.410858,422.033813 
z"/>
<path fill="#F5E11C" opacity="1.000000" stroke="none" 
	d="
M383.290222,451.060120 
	C383.349121,450.700500 383.642120,450.279480 384.206848,449.897705 
	C384.160553,450.290863 383.842438,450.644836 383.290222,451.060120 
z"/>
<path fill="#F5E11C" opacity="1.000000" stroke="none" 
	d="
M415.364349,409.977844 
	C415.278961,409.729767 415.514038,409.511627 416.058533,409.303711 
	C416.066956,409.466278 415.839233,409.697540 415.364349,409.977844 
z"/>
<path fill="#F5E11C" opacity="1.000000" stroke="none" 
	d="
M448.854736,527.713745 
	C448.571503,527.792358 448.387146,527.570618 448.205933,527.085327 
	C448.507538,526.927673 448.755707,527.124878 448.854736,527.713745 
z"/>
<path fill="#F5E11C" opacity="1.000000" stroke="none" 
	d="
M412.372070,412.123108 
	C412.307831,411.936737 412.495789,411.640350 412.904419,411.196136 
	C412.958130,411.369934 412.791199,411.691528 412.372070,412.123108 
z"/>
<path fill="#F5E11C" opacity="1.000000" stroke="none" 
	d="
M411.392212,413.030823 
	C411.352814,412.850800 411.564758,412.591064 412.009460,412.220642 
	C412.042694,412.390381 411.843140,412.670746 411.392212,413.030823 
z"/>
<path fill="#F5E11C" opacity="1.000000" stroke="none" 
	d="
M423.064880,486.628052 
	C422.885010,486.645111 422.623138,486.390747 422.264038,485.877808 
	C422.438843,485.865021 422.710876,486.110840 423.064880,486.628052 
z"/>
<path fill="#F5E11C" opacity="1.000000" stroke="none" 
	d="
M402.326843,423.049652 
	C402.288452,422.869720 402.506653,422.602081 402.961487,422.221863 
	C402.993225,422.393494 402.788330,422.677704 402.326843,423.049652 
z"/>
<path fill="#F5E11C" opacity="1.000000" stroke="none" 
	d="
M409.009277,415.251221 
	C408.905151,415.269958 408.839050,414.996246 408.839050,414.996246 
	C408.839050,414.996246 409.042694,414.803040 409.178925,414.841736 
	C409.315155,414.880402 409.113434,415.232513 409.009277,415.251221 
z"/>
<path fill="#F5E11C" opacity="1.000000" stroke="none" 
	d="
M408.036926,416.223938 
	C407.939606,416.233093 407.863495,415.980865 407.863495,415.980865 
	C407.863495,415.980865 408.055634,415.801880 408.181641,415.844177 
	C408.307617,415.886475 408.134247,416.214752 408.036926,416.223938 
z"/>
<path fill="#F5E11C" opacity="1.000000" stroke="none" 
	d="
M405.532043,419.189087 
	C405.348633,418.971008 405.482086,418.684235 405.916687,418.316528 
	C406.088776,418.522949 405.965820,418.817841 405.532043,419.189087 
z"/>
<path fill="#F5E11C" opacity="1.000000" stroke="none" 
	d="
M404.435852,419.985474 
	C404.341248,419.734985 404.559967,419.527557 405.088562,419.355042 
	C405.222168,419.640961 405.005707,419.853790 404.435852,419.985474 
z"/>
<path fill="#F5E11C" opacity="1.000000" stroke="none" 
	d="
M261.585266,368.022064 
	C261.404633,369.570068 261.255646,371.480804 260.411926,373.007629 
	C249.019974,393.623260 249.831345,414.968323 256.373047,436.705231 
	C257.325806,439.871063 258.102356,443.089905 258.947662,446.693604 
	C247.222916,420.430389 245.799561,394.065430 261.585266,368.022064 
z"/>
<path fill="#F5E11C" opacity="1.000000" stroke="none" 
	d="
M350.956177,343.588806 
	C348.600555,343.257019 345.996185,342.791931 343.509491,341.970581 
	C324.513794,335.696381 306.092773,337.052460 288.168518,345.887634 
	C286.414795,346.752075 284.488403,347.266144 282.255066,347.932068 
	C304.029266,334.425537 326.998749,332.953766 350.956177,343.588806 
z"/>
<path fill="#F5E11C" opacity="1.000000" stroke="none" 
	d="
M258.916840,447.392395 
	C260.212280,449.471924 261.561737,451.914703 262.895905,454.733582 
	C261.577362,452.658356 260.274109,450.207001 258.916840,447.392395 
z"/>
<path fill="#F5E11C" opacity="1.000000" stroke="none" 
	d="
M354.956787,345.619812 
	C353.878448,345.418640 352.608795,344.938507 351.190369,344.130920 
	C352.282898,344.315918 353.524200,344.828400 354.956787,345.619812 
z"/>
<path fill="#F5E11C" opacity="1.000000" stroke="none" 
	d="
M265.703125,362.072083 
	C265.437775,362.860565 264.912018,363.834686 264.025818,364.856262 
	C264.257812,364.021729 264.850250,363.139740 265.703125,362.072083 
z"/>
<path fill="#F5E11C" opacity="1.000000" stroke="none" 
	d="
M281.602844,347.890869 
	C281.145874,348.534424 280.368408,349.231873 279.231445,349.928833 
	C279.675385,349.267151 280.478882,348.605957 281.602844,347.890869 
z"/>
<path fill="#F5E11C" opacity="1.000000" stroke="none" 
	d="
M262.814270,455.346924 
	C263.254578,455.824524 263.593872,456.641968 263.937012,457.806152 
	C263.531647,457.330811 263.122437,456.508789 262.814270,455.346924 
z"/>
<path fill="#F5E11C" opacity="1.000000" stroke="none" 
	d="
M358.855469,347.872986 
	C358.697968,347.901154 358.411652,347.783142 358.093689,347.500427 
	C358.320068,347.404053 358.541595,347.534424 358.855469,347.872986 
z"/>
<path fill="#F5E11C" opacity="1.000000" stroke="none" 
	d="
M277.699066,350.929626 
	C277.522736,351.233582 277.049713,351.550812 276.290283,351.931335 
	C276.470062,351.644012 276.936218,351.293457 277.699066,350.929626 
z"/>
<path fill="#F5E11C" opacity="1.000000" stroke="none" 
	d="
M262.721680,366.070068 
	C262.764557,366.447174 262.564636,367.019012 262.136932,367.794678 
	C262.099060,367.420593 262.288971,366.842682 262.721680,366.070068 
z"/>
<path fill="#F5E11C" opacity="1.000000" stroke="none" 
	d="
M356.986176,346.707336 
	C356.604034,346.746979 356.011597,346.548279 355.206116,346.114380 
	C355.587372,346.075775 356.181610,346.272400 356.986176,346.707336 
z"/>
<path fill="#F5E11C" opacity="1.000000" stroke="none" 
	d="
M273.665100,353.856079 
	C273.667206,354.010895 273.405823,354.320984 272.878235,354.784882 
	C272.875183,354.629547 273.138397,354.320465 273.665100,353.856079 
z"/>
<path fill="#F5E11C" opacity="1.000000" stroke="none" 
	d="
M278.717224,349.962799 
	C278.776367,350.149628 278.564117,350.422211 278.137146,350.841309 
	C278.096893,350.674744 278.271362,350.361664 278.717224,349.962799 
z"/>
<path fill="#F5E11C" opacity="1.000000" stroke="none" 
	d="
M353.936096,418.245880 
	C351.453613,430.464996 352.232605,442.460724 358.438873,454.027222 
	C356.621765,452.445190 354.804657,450.863190 352.792999,449.043518 
	C352.825500,448.656982 353.052551,448.508118 353.681702,448.250336 
	C354.083740,448.141418 354.268005,448.158295 354.268005,448.158295 
	C354.268005,448.158295 353.990967,448.006439 353.990967,448.006439 
	C352.989716,441.812958 351.488342,435.644318 351.179230,429.416504 
	C351.000427,425.815002 352.743317,422.118103 353.936096,418.245880 
z"/>
<path fill="#F5E11C" opacity="1.000000" stroke="none" 
	d="
M314.112976,476.210114 
	C321.102325,479.812714 328.212189,484.050507 336.652588,482.903748 
	C342.079712,482.166412 347.340729,480.206879 352.966492,478.604492 
	C349.599060,484.002075 343.384155,484.356934 337.917999,484.695251 
	C329.157135,485.237518 320.852722,482.854065 314.112976,476.210114 
z"/>
<path fill="#F5E11C" opacity="1.000000" stroke="none" 
	d="
M349.560425,454.259735 
	C352.068146,456.312988 354.575867,458.366241 357.083557,460.419495 
	C346.587799,456.142853 336.108643,453.474213 324.531372,457.272156 
	C329.483429,452.211548 336.060638,454.236053 342.289490,454.323975 
	C343.581268,454.342194 344.867462,454.759125 346.577209,454.995605 
	C346.998230,454.998962 346.986938,454.992615 347.149750,455.170654 
	C347.854828,455.244812 348.397125,455.140961 349.098206,454.845581 
	C349.256989,454.654053 349.560425,454.259735 349.560425,454.259735 
z"/>
<path fill="#F5E11C" opacity="1.000000" stroke="none" 
	d="
M391.700317,490.833618 
	C391.966766,490.665222 392.195221,490.854492 392.815613,491.388000 
	C396.196472,494.457123 398.431702,492.018341 400.125946,490.177399 
	C400.753387,489.495636 399.481445,487.065918 399.075745,485.433380 
	C398.648132,484.696136 398.220490,483.958893 397.628967,483.014282 
	C399.161316,484.733002 401.858551,486.497742 402.204254,488.641663 
	C402.437408,490.087524 399.613342,492.972198 397.671661,493.532776 
	C396.026031,494.007935 393.684631,492.073151 391.700317,490.833618 
z"/>
<path fill="#F5E11C" opacity="1.000000" stroke="none" 
	d="
M303.688538,409.301819 
	C305.639648,415.377777 307.357056,421.776367 309.173584,428.536377 
	C303.706238,423.568298 302.652588,416.876526 303.688538,409.301819 
z"/>
<path fill="#000000" opacity="1.000000" stroke="none" 
	d="
M376.893707,476.510315 
	C380.138336,478.990295 383.438385,481.806549 386.593567,484.932037 
	C386.448730,485.241272 386.072571,485.303345 386.072571,485.303345 
	C383.031403,482.484436 379.990265,479.665527 376.893707,476.510315 
z"/>
<path fill="#F5E11C" opacity="1.000000" stroke="none" 
	d="
M347.819397,441.885651 
	C345.157257,436.782349 342.549011,431.291168 339.848907,425.437134 
	C340.999939,426.734131 342.573090,428.242920 343.416107,430.085693 
	C345.112305,433.793396 346.410736,437.683167 347.819397,441.885651 
z"/>
<path fill="#F5E11C" opacity="1.000000" stroke="none" 
	d="
M397.274475,482.156616 
	C395.104370,480.088318 393.002930,477.680756 390.693970,475.023651 
	C392.771973,477.121887 395.057556,479.469604 397.274475,482.156616 
z"/>
<path fill="#F5E11C" opacity="1.000000" stroke="none" 
	d="
M352.315521,448.175842 
	C350.793457,446.621002 349.332489,444.721924 347.765259,442.493774 
	C349.231537,444.053680 350.804077,445.942627 352.315521,448.175842 
z"/>
<path fill="#F5E11C" opacity="1.000000" stroke="none" 
	d="
M323.887817,457.197113 
	C321.759277,458.491852 319.242645,459.731201 316.368530,461.039673 
	C318.507263,459.786438 321.003479,458.464081 323.887817,457.197113 
z"/>
<path fill="#F5E11C" opacity="1.000000" stroke="none" 
	d="
M343.730713,450.771118 
	C345.523376,451.585144 347.296539,452.716583 349.315063,454.053864 
	C349.560425,454.259735 349.256989,454.654053 348.773895,454.834534 
	C347.856171,455.007568 347.421570,455.000092 346.986938,454.992615 
	C346.986938,454.992615 346.998230,454.998962 347.004578,455.003113 
	C345.911011,453.701019 344.811096,452.394806 343.730713,450.771118 
z"/>
<path fill="#F5E11C" opacity="1.000000" stroke="none" 
	d="
M315.735504,461.072296 
	C314.347809,462.413239 312.604004,463.786072 310.542664,465.289856 
	C311.943176,463.981903 313.661316,462.543060 315.735504,461.072296 
z"/>
<path fill="#F5E11C" opacity="1.000000" stroke="none" 
	d="
M331.840881,415.879822 
	C330.461121,415.372131 329.051331,414.523163 327.511719,413.409576 
	C328.858246,413.942841 330.334534,414.740692 331.840881,415.879822 
z"/>
<path fill="#000000" opacity="1.000000" stroke="none" 
	d="
M365.451538,467.961945 
	C366.868805,464.998016 367.782990,467.059418 368.826660,468.917328 
	C367.842712,468.805450 366.816772,468.372833 365.451538,467.961945 
z"/>
<path fill="#F5E11C" opacity="1.000000" stroke="none" 
	d="
M387.612671,486.827393 
	C388.812683,487.576752 389.968445,488.672058 391.316162,489.997620 
	C390.194855,489.209686 388.881622,488.191498 387.612671,486.827393 
z"/>
<path fill="#F5E11C" opacity="1.000000" stroke="none" 
	d="
M307.773376,467.078674 
	C307.771576,467.967773 307.438965,468.888092 307.316467,470.052124 
	C306.853516,469.841003 306.180359,469.386169 305.507233,468.931366 
	C306.152313,468.324188 306.797424,467.717010 307.773376,467.078674 
z"/>
<path fill="#F5E11C" opacity="1.000000" stroke="none" 
	d="
M355.089691,477.801758 
	C355.892090,476.830353 357.063782,475.877472 358.563141,474.861084 
	C357.746887,475.805145 356.602936,476.812714 355.089691,477.801758 
z"/>
<path fill="#F5E11C" opacity="1.000000" stroke="none" 
	d="
M307.654053,470.819122 
	C308.755524,471.442474 309.805939,472.410767 310.974365,473.667847 
	C309.929291,473.025787 308.766174,472.094940 307.654053,470.819122 
z"/>
<path fill="#F5E11C" opacity="1.000000" stroke="none" 
	d="
M388.380432,472.167480 
	C387.517609,471.612396 386.715393,470.700684 385.809570,469.498138 
	C386.617645,470.075165 387.529327,470.942993 388.380432,472.167480 
z"/>
<path fill="#F5E11C" opacity="1.000000" stroke="none" 
	d="
M309.134735,429.142212 
	C309.790375,429.604889 310.415741,430.435272 311.132782,431.570801 
	C310.517792,431.087250 309.811127,430.298615 309.134735,429.142212 
z"/>
<path fill="#000000" opacity="1.000000" stroke="none" 
	d="
M373.153809,473.371033 
	C373.922882,473.586914 374.829651,474.067871 375.778748,474.879608 
	C374.977844,474.685608 374.134705,474.160858 373.153809,473.371033 
z"/>
<path fill="#F5E11C" opacity="1.000000" stroke="none" 
	d="
M372.836365,430.876770 
	C372.157806,430.082458 371.530762,428.914886 370.818115,427.421082 
	C371.450928,428.231049 372.169434,429.367279 372.836365,430.876770 
z"/>
<path fill="#F5E11C" opacity="1.000000" stroke="none" 
	d="
M311.112610,474.242035 
	C311.965454,474.389771 312.894348,474.878815 313.977234,475.647461 
	C313.150391,475.479156 312.169556,475.031250 311.112610,474.242035 
z"/>
<path fill="#F5E11C" opacity="1.000000" stroke="none" 
	d="
M315.660950,436.813904 
	C316.440765,437.110016 317.176147,437.744904 318.026764,438.650360 
	C317.300201,438.331512 316.458374,437.742096 315.660950,436.813904 
z"/>
<path fill="#F5E11C" opacity="1.000000" stroke="none" 
	d="
M339.865997,424.858002 
	C339.248230,424.355286 338.623322,423.509216 337.899597,422.354523 
	C338.486847,422.868805 339.172882,423.691711 339.865997,424.858002 
z"/>
<path fill="#F5E11C" opacity="1.000000" stroke="none" 
	d="
M336.328430,448.352264 
	C337.265961,448.166473 338.498077,448.197449 340.001282,448.486145 
	C339.055908,448.685608 337.839478,448.627319 336.328430,448.352264 
z"/>
<path fill="#F5E11C" opacity="1.000000" stroke="none" 
	d="
M337.884766,421.824646 
	C337.217346,421.514282 336.532867,420.856201 335.664734,419.976746 
	C336.276581,420.329224 337.072113,420.903076 337.884766,421.824646 
z"/>
<path fill="#F5E11C" opacity="1.000000" stroke="none" 
	d="
M390.283081,474.184570 
	C389.749908,474.031860 389.276947,473.558899 388.644867,472.892212 
	C389.104950,473.087097 389.724152,473.475739 390.283081,474.184570 
z"/>
<path fill="#F5E11C" opacity="1.000000" stroke="none" 
	d="
M355.089783,415.285278 
	C355.168335,415.990356 354.947998,416.900909 354.428345,417.999512 
	C354.349640,417.288666 354.570282,416.389679 355.089783,415.285278 
z"/>
<path fill="#F5E11C" opacity="1.000000" stroke="none" 
	d="
M313.713623,434.821472 
	C314.243805,434.969330 314.715363,435.434998 315.348907,436.090698 
	C314.892242,435.900238 314.273621,435.519775 313.713623,434.821472 
z"/>
<path fill="#F5E11C" opacity="1.000000" stroke="none" 
	d="
M359.023163,474.887634 
	C359.012665,474.612366 359.215393,474.348755 359.662415,474.007782 
	C359.683258,474.253357 359.459839,474.576294 359.023163,474.887634 
z"/>
<path fill="#F5E11C" opacity="1.000000" stroke="none" 
	d="
M386.149597,485.550354 
	C386.072571,485.303345 386.448730,485.241272 386.635803,485.273743 
	C386.822021,485.615204 386.952515,485.851562 387.355530,486.168854 
	C387.073334,486.147400 386.649963,485.972382 386.149597,485.550354 
z"/>
<path fill="#F5E11C" opacity="1.000000" stroke="none" 
	d="
M333.240601,417.260193 
	C332.827972,417.242188 332.415680,416.924255 331.894531,416.369324 
	C332.270721,416.408325 332.755798,416.684326 333.240601,417.260193 
z"/>
<path fill="#F5E11C" opacity="1.000000" stroke="none" 
	d="
M340.314880,448.910950 
	C340.734558,448.820496 341.326172,449.016785 342.124817,449.447388 
	C341.716797,449.520355 341.101807,449.359009 340.314880,448.910950 
z"/>
<path fill="#F5E11C" opacity="1.000000" stroke="none" 
	d="
M319.343018,439.842285 
	C319.753052,439.838623 320.285583,440.129059 320.959961,440.688843 
	C320.556396,440.684235 320.010925,440.410309 319.343018,439.842285 
z"/>
<path fill="#F5E11C" opacity="1.000000" stroke="none" 
	d="
M321.145142,441.102570 
	C321.503204,441.061493 321.999390,441.234619 322.566681,441.659058 
	C322.186279,441.712494 321.734772,441.514618 321.145142,441.102570 
z"/>
<path fill="#F5E11C" opacity="1.000000" stroke="none" 
	d="
M311.161499,432.090698 
	C311.499176,432.132812 311.868561,432.477722 312.399384,433.028381 
	C312.104919,432.953949 311.649048,432.673737 311.161499,432.090698 
z"/>
<path fill="#F5E11C" opacity="1.000000" stroke="none" 
	d="
M342.323914,449.794189 
	C342.513062,449.616058 342.811493,449.739563 343.269592,450.093872 
	C343.127594,450.175049 342.795532,450.098785 342.323914,449.794189 
z"/>
<path fill="#F5E11C" opacity="1.000000" stroke="none" 
	d="
M318.183777,439.084656 
	C318.356018,439.005585 318.716431,439.137970 319.237732,439.514587 
	C319.056396,439.604614 318.714142,439.450378 318.183777,439.084656 
z"/>
<path fill="#F5E11C" opacity="1.000000" stroke="none" 
	d="
M355.937042,414.208679 
	C355.991119,414.388153 355.816406,414.730133 355.374146,415.193604 
	C355.307129,415.000427 355.507690,414.685791 355.937042,414.208679 
z"/>
<path fill="#F5E11C" opacity="1.000000" stroke="none" 
	d="
M353.819611,478.332245 
	C353.831970,478.137360 354.115601,477.958466 354.647339,477.719421 
	C354.627228,477.888947 354.359070,478.118591 353.819611,478.332245 
z"/>
<path fill="#F5E11C" opacity="1.000000" stroke="none" 
	d="
M312.758972,433.707886 
	C312.960022,433.622925 313.126190,433.777039 313.375244,434.087921 
	C313.478027,434.223297 313.044647,434.237488 313.044647,434.237488 
	C313.044647,434.237488 312.743927,433.925659 312.758972,433.707886 
z"/>
<path fill="#F5E11C" opacity="1.000000" stroke="none" 
	d="
M310.107941,465.285461 
	C310.116974,465.464905 309.854736,465.746094 309.302917,466.105286 
	C309.287781,465.917908 309.562225,465.652557 310.107941,465.285461 
z"/>
<path fill="#F5E11C" opacity="1.000000" stroke="none" 
	d="
M334.256165,418.290161 
	C334.058167,418.378937 333.886932,418.228943 333.626617,417.922974 
	C333.851898,417.663879 334.100342,417.758667 334.256165,418.290161 
z"/>
<path fill="#F5E11C" opacity="1.000000" stroke="none" 
	d="
M335.261108,419.292053 
	C335.061523,419.376953 334.887695,419.218750 334.622620,418.901367 
	C334.852570,418.649170 335.104401,418.751434 335.261108,419.292053 
z"/>
<path fill="#F5E11C" opacity="1.000000" stroke="none" 
	d="
M308.947266,466.165253 
	C308.969391,466.331116 308.757324,466.632599 308.272095,467.018860 
	C308.236938,466.835999 308.475006,466.568420 308.947266,466.165253 
z"/>
<path fill="#000000" opacity="1.000000" stroke="none" 
	d="
M399.081238,485.864441 
	C399.481445,487.065918 400.753387,489.495636 400.125946,490.177399 
	C398.431702,492.018341 396.196472,494.457123 393.032166,491.436493 
	C396.099487,491.007843 399.240173,490.771637 399.081238,485.864441 
z"/>
<path fill="#FEC219" opacity="1.000000" stroke="none" 
	d="
M353.995483,448.003235 
	C353.990967,448.006439 354.268005,448.158295 354.268005,448.158295 
	C354.268005,448.158295 354.083740,448.141418 354.044952,448.066223 
	C354.006165,447.991028 354.000000,448.000000 353.995483,448.003235 
z"/>
<path fill="#FEC219" opacity="1.000000" stroke="none" 
	d="
M347.149750,455.170654 
	C347.421570,455.000092 347.856171,455.007568 348.615112,455.026062 
	C348.397125,455.140961 347.854828,455.244812 347.149750,455.170654 
z"/>
</svg>