<?xml version="1.0" encoding="UTF-8" standalone="no"?>
<!DOCTYPE svg PUBLIC "-//W3C//DTD SVG 1.1//EN" "http://www.w3.org/Graphics/SVG/1.1/DTD/svg11.dtd">
<svg xmlns="http://www.w3.org/2000/svg" version="1.1" viewBox="0.00 0.00 807.00 807.00">
<g stroke-width="2.00" fill="none" stroke-linecap="butt">
<path stroke="#fa6b1f" vector-effect="non-scaling-stroke" d="
  M 362.64 349.81
  Q 340.38 333.87 314.62 335.78
  Q 296.79 337.10 282.34 345.67
  C 260.49 358.62 248.20 383.70 249.03 408.97
  C 249.62 427.07 255.53 444.19 264.23 460.23"
/>
<path stroke="#8e701d" vector-effect="non-scaling-stroke" d="
  M 496.90 417.29
  Q 496.81 417.79 496.51 417.74"
/>
<path stroke="#8e701d" vector-effect="non-scaling-stroke" d="
  M 370.71 460.60
  Q 370.25 461.17 369.75 461.18
  A 0.44 0.44 0.0 0 1 369.34 460.57
  Q 371.53 455.44 372.17 453.93
  C 377.16 442.00 372.34 426.72 363.08 417.83
  C 360.73 415.59 359.12 413.92 356.79 412.93
  A 1.30 1.30 0.0 0 0 355.10 413.58
  C 349.15 426.47 350.99 441.55 358.77 453.39
  A 0.36 0.36 0.0 0 1 358.23 453.86
  Q 353.11 449.41 349.55 445.71
  Q 348.05 444.16 344.69 438.18
  C 340.82 431.31 340.06 424.42 334.60 418.87
  Q 322.22 406.30 303.63 407.44
  A 0.58 0.58 0.0 0 0 303.08 408.05
  C 303.88 423.94 311.11 436.58 325.99 442.55
  Q 328.59 443.59 338.73 447.30
  Q 342.01 448.50 346.67 451.82
  Q 351.01 454.91 357.78 460.94
  A 0.36 0.35 40.3 0 1 357.83 461.43
  L 357.81 461.45
  A 0.32 0.31 -54.1 0 1 357.39 461.52
  Q 349.91 456.66 340.98 455.00
  C 327.83 452.55 315.52 458.53 305.86 467.56
  A 0.82 0.81 45.2 0 0 305.86 468.75
  C 319.03 480.93 335.15 486.84 351.71 477.67
  Q 358.67 473.81 363.77 467.58
  A 1.87 1.87 0.0 0 1 366.47 467.37
  L 392.53 490.78
  A 4.06 4.05 46.0 0 0 397.85 490.88
  L 398.29 490.51
  A 3.89 3.89 0.0 0 0 398.99 484.86
  Q 390.45 474.65 383.63 467.62
  Q 381.95 465.88 379.01 463.59"
/>
<path stroke="#80a27e" vector-effect="non-scaling-stroke" d="
  M 449.52 529.40
  Q 449.58 528.90 449.38 528.63
  C 442.23 518.87 437.18 509.34 430.73 498.02
  C 423.41 485.19 411.91 471.31 397.28 466.35
  C 390.48 464.05 385.43 463.90 379.01 463.59"
/>
<path stroke="#0e4f81" vector-effect="non-scaling-stroke" d="
  M 379.01 463.59
  Q 377.60 462.28 376.01 461.46
  Q 375.18 461.03 373.40 461.12
  Q 372.02 461.18 370.71 460.60"
/>
<path stroke="#80a27e" vector-effect="non-scaling-stroke" d="
  M 370.71 460.60
  L 393.83 440.20
  A 6.71 6.69 76.0 0 0 395.92 436.71
  C 401.54 412.84 422.14 400.20 445.77 399.39
  C 461.42 398.84 477.93 405.38 490.99 414.06
  Q 493.74 415.90 496.51 417.74"
/>
<path stroke="#0e4f81" vector-effect="non-scaling-stroke" d="
  M 496.51 417.74
  Q 496.80 417.89 497.00 417.86"
/>
</g>
<path fill="#f51224" d="
  M 362.64 349.81
  Q 340.38 333.87 314.62 335.78
  Q 296.79 337.10 282.34 345.67
  C 260.49 358.62 248.20 383.70 249.03 408.97
  C 249.62 427.07 255.53 444.19 264.23 460.23
  Q 228.04 509.33 192.92 559.35
  A 1.82 1.81 38.4 0 1 190.23 559.66
  Q 187.94 557.62 186.51 555.87
  C 135.79 493.91 94.70 442.64 50.65 387.40
  Q 44.71 379.94 43.41 377.50
  A 0.65 0.64 55.1 0 1 43.54 376.73
  L 46.80 373.78
  A 0.16 0.08 -63.4 0 0 46.84 373.75
  Q 76.48 354.42 92.06 344.57
  Q 98.90 340.24 102.95 338.11
  A 1.39 1.37 47.5 0 1 104.34 338.18
  Q 107.05 339.93 109.32 341.93
  Q 144.86 373.35 182.28 408.04
  A 0.56 0.54 43.5 0 0 183.05 408.03
  Q 205.58 385.12 232.88 360.64
  C 269.67 327.64 307.68 295.93 345.57 268.07
  Q 404.50 224.74 469.47 188.47
  Q 493.43 175.09 512.08 166.63
  Q 517.14 164.33 522.48 162.28
  Q 525.08 161.28 527.65 161.89
  A 0.41 0.40 26.7 0 1 527.87 162.55
  C 526.17 164.49 524.91 166.31 523.43 167.89
  Q 518.50 173.19 512.52 180.02
  Q 504.02 189.73 501.72 192.24
  Q 460.76 237.01 452.12 246.62
  Q 444.50 255.11 425.78 276.28
  Q 387.35 319.75 367.92 344.16
  Q 364.41 348.58 362.64 349.81
  Z"
/>
<path fill="#0080e1" d="
  M 449.52 529.40
  Q 449.58 528.90 449.38 528.63
  C 442.23 518.87 437.18 509.34 430.73 498.02
  C 423.41 485.19 411.91 471.31 397.28 466.35
  C 390.48 464.05 385.43 463.90 379.01 463.59
  Q 377.60 462.28 376.01 461.46
  Q 375.18 461.03 373.40 461.12
  Q 372.02 461.18 370.71 460.60
  L 393.83 440.20
  A 6.71 6.69 76.0 0 0 395.92 436.71
  C 401.54 412.84 422.14 400.20 445.77 399.39
  C 461.42 398.84 477.93 405.38 490.99 414.06
  Q 493.74 415.90 496.51 417.74
  Q 496.80 417.89 497.00 417.86
  L 504.30 423.22
  A 0.49 0.48 32.0 0 0 505.01 423.06
  Q 512.13 409.90 521.27 400.69
  Q 540.38 381.42 566.87 371.11
  Q 586.76 363.37 604.98 357.97
  Q 626.74 351.52 649.78 343.49
  Q 681.13 332.57 705.95 319.89
  Q 729.54 307.84 746.53 297.02
  Q 752.60 293.15 759.64 289.11
  C 764.75 286.18 766.56 289.98 767.24 294.43
  C 768.41 302.13 767.89 308.82 766.88 317.25
  C 764.39 338.18 755.01 358.09 739.88 372.79
  Q 730.26 382.14 717.79 389.03
  C 707.08 394.95 696.05 399.74 684.62 404.63
  A 0.17 0.17 0.0 0 0 684.72 404.95
  Q 689.04 404.00 693.67 402.36
  C 694.57 402.04 695.82 402.07 696.79 401.77
  Q 708.24 398.15 722.25 392.98
  Q 736.27 387.80 753.08 381.78
  A 1.92 1.92 0.0 0 1 755.62 383.27
  Q 756.19 386.66 755.79 389.75
  C 754.08 402.96 749.15 416.62 741.79 428.13
  Q 725.78 453.16 696.21 464.28
  Q 680.39 470.23 662.89 474.13
  A 3.20 2.99 -63.6 0 0 662.14 474.41
  Q 661.31 474.86 660.86 474.88
  Q 657.51 475.01 654.33 476.20
  A 0.31 0.31 0.0 0 0 654.45 476.80
  Q 669.52 476.48 687.19 474.36
  Q 703.97 472.34 718.03 469.95
  A 0.73 0.73 0.0 0 1 718.80 471.00
  Q 702.03 504.13 668.04 517.49
  Q 655.77 522.31 643.51 524.48
  Q 634.02 526.15 622.00 526.90
  Q 613.29 527.43 591.45 525.87
  Q 591.38 525.87 589.89 525.53
  Q 588.70 525.26 588.21 525.38
  A 0.38 0.38 0.0 0 0 588.14 526.10
  Q 594.00 528.74 596.64 530.17
  Q 621.77 543.78 648.94 552.57
  A 0.40 0.39 -62.3 0 1 649.13 553.19
  Q 647.97 554.69 646.44 555.77
  Q 621.37 573.40 591.23 579.06
  Q 566.83 583.64 542.05 581.18
  Q 516.10 578.61 494.79 567.79
  Q 468.60 554.49 450.42 530.07
  Q 450.09 529.64 449.52 529.40
  Z
  M 436.00 437.22
  A 8.42 8.42 0.0 0 0 427.58 428.80
  A 8.42 8.42 0.0 0 0 419.16 437.22
  A 8.42 8.42 0.0 0 0 427.58 445.64
  A 8.42 8.42 0.0 0 0 436.00 437.22
  Z"
/>
<path fill="#ffc31a" d="
  M 362.64 349.81
  Q 364.70 351.58 366.86 353.29
  C 373.79 358.79 379.87 365.60 385.26 372.72
  A 0.54 0.53 -44.7 0 0 386.11 372.72
  C 396.14 359.65 409.17 348.50 424.34 341.81
  Q 433.51 337.77 443.35 336.62
  Q 455.43 335.20 466.21 337.40
  Q 476.12 339.43 485.00 344.16
  C 499.24 351.75 510.55 365.48 517.66 379.72
  A 2.86 2.85 -38.6 0 1 517.31 382.80
  Q 505.08 397.62 497.18 416.06
  Q 496.93 416.64 496.90 417.29
  Q 496.81 417.79 496.51 417.74
  Q 493.74 415.90 490.99 414.06
  C 477.93 405.38 461.42 398.84 445.77 399.39
  C 422.14 400.20 401.54 412.84 395.92 436.71
  A 6.71 6.69 76.0 0 1 393.83 440.20
  L 370.71 460.60
  Q 370.25 461.17 369.75 461.18
  A 0.44 0.44 0.0 0 1 369.34 460.57
  Q 371.53 455.44 372.17 453.93
  C 377.16 442.00 372.34 426.72 363.08 417.83
  C 360.73 415.59 359.12 413.92 356.79 412.93
  A 1.30 1.30 0.0 0 0 355.10 413.58
  C 349.15 426.47 350.99 441.55 358.77 453.39
  A 0.36 0.36 0.0 0 1 358.23 453.86
  Q 353.11 449.41 349.55 445.71
  Q 348.05 444.16 344.69 438.18
  C 340.82 431.31 340.06 424.42 334.60 418.87
  Q 322.22 406.30 303.63 407.44
  A 0.58 0.58 0.0 0 0 303.08 408.05
  C 303.88 423.94 311.11 436.58 325.99 442.55
  Q 328.59 443.59 338.73 447.30
  Q 342.01 448.50 346.67 451.82
  Q 351.01 454.91 357.78 460.94
  A 0.36 0.35 40.3 0 1 357.83 461.43
  L 357.81 461.45
  A 0.32 0.31 -54.1 0 1 357.39 461.52
  Q 349.91 456.66 340.98 455.00
  C 327.83 452.55 315.52 458.53 305.86 467.56
  A 0.82 0.81 45.2 0 0 305.86 468.75
  C 319.03 480.93 335.15 486.84 351.71 477.67
  Q 358.67 473.81 363.77 467.58
  A 1.87 1.87 0.0 0 1 366.47 467.37
  L 392.53 490.78
  A 4.06 4.05 46.0 0 0 397.85 490.88
  L 398.29 490.51
  A 3.89 3.89 0.0 0 0 398.99 484.86
  Q 390.45 474.65 383.63 467.62
  Q 381.95 465.88 379.01 463.59
  C 385.43 463.90 390.48 464.05 397.28 466.35
  C 411.91 471.31 423.41 485.19 430.73 498.02
  C 437.18 509.34 442.23 518.87 449.38 528.63
  Q 449.58 528.90 449.52 529.40
  Q 440.26 540.03 431.40 547.64
  Q 411.97 564.35 390.72 577.71
  Q 388.66 579.01 387.09 579.79
  A 3.11 3.11 0.0 0 1 384.10 579.67
  Q 377.57 575.75 366.90 568.10
  Q 316.70 532.12 279.25 482.75
  Q 271.50 472.54 264.23 460.23
  C 255.53 444.19 249.62 427.07 249.03 408.97
  C 248.20 383.70 260.49 358.62 282.34 345.67
  Q 296.79 337.10 314.62 335.78
  Q 340.38 333.87 362.64 349.81
  Z"
/>
<path fill="#1c1d20" d="
  M 370.71 460.60
  Q 372.02 461.18 373.40 461.12
  Q 375.18 461.03 376.01 461.46
  Q 377.60 462.28 379.01 463.59
  Q 381.95 465.88 383.63 467.62
  Q 390.45 474.65 398.99 484.86
  A 3.89 3.89 0.0 0 1 398.29 490.51
  L 397.85 490.88
  A 4.06 4.05 46.0 0 1 392.53 490.78
  L 366.47 467.37
  A 1.87 1.87 0.0 0 0 363.77 467.58
  Q 358.67 473.81 351.71 477.67
  C 335.15 486.84 319.03 480.93 305.86 468.75
  A 0.82 0.81 45.2 0 1 305.86 467.56
  C 315.52 458.53 327.83 452.55 340.98 455.00
  Q 349.91 456.66 357.39 461.52
  A 0.32 0.31 -54.1 0 0 357.81 461.45
  L 357.83 461.43
  A 0.36 0.35 40.3 0 0 357.78 460.94
  Q 351.01 454.91 346.67 451.82
  Q 342.01 448.50 338.73 447.30
  Q 328.59 443.59 325.99 442.55
  C 311.11 436.58 303.88 423.94 303.08 408.05
  A 0.58 0.58 0.0 0 1 303.63 407.44
  Q 322.22 406.30 334.60 418.87
  C 340.06 424.42 340.82 431.31 344.69 438.18
  Q 348.05 444.16 349.55 445.71
  Q 353.11 449.41 358.23 453.86
  A 0.36 0.36 0.0 0 0 358.77 453.39
  C 350.99 441.55 349.15 426.47 355.10 413.58
  A 1.30 1.30 0.0 0 1 356.79 412.93
  C 359.12 413.92 360.73 415.59 363.08 417.83
  C 372.34 426.72 377.16 442.00 372.17 453.93
  Q 371.53 455.44 369.34 460.57
  A 0.44 0.44 0.0 0 0 369.75 461.18
  Q 370.25 461.17 370.71 460.60
  Z"
/>
<path fill="#1c1d20" d="
  M 496.90 417.29
  L 497.00 417.86
  Q 496.80 417.89 496.51 417.74
  Q 496.81 417.79 496.90 417.29
  Z"
/>
</svg>
